<?xml version="1.0" encoding="utf-8"?>
<!-- Generator: Adobe Illustrator 25.4.1, SVG Export Plug-In . SVG Version: 6.00 Build 0)  -->
<svg version="1.1" id="Layer_1" xmlns="http://www.w3.org/2000/svg" xmlns:xlink="http://www.w3.org/1999/xlink" x="0px" y="0px"
	 viewBox="0 0 64.9 14.1" style="enable-background:new 0 0 64.9 14.1;" xml:space="preserve">
<style type="text/css">
	.st0{fill:#42E695;}
	.st1{fill:#FFFFFF;}
</style>
<g>
	<g>
		<path class="st0" d="M6.8,0L0.6,14.1l0,0c2,0,3.8-1.2,4.6-3L10.1,0H6.8z"/>
		<path class="st0" d="M24.1,9.3h-2.9l-0.4,1c-0.1,0.4-0.2,0.5-0.7,0.5h-0.5c-0.3,0-0.4-0.2-0.3-0.5l2.3-6.5
			c0.1-0.4,0.3-0.5,0.7-0.5h0.5c0.4,0,0.5,0.1,0.7,0.5l2.4,6.5c0.1,0.3,0,0.5-0.3,0.5h-0.5c-0.4,0-0.5-0.1-0.7-0.5L24.1,9.3z
			 M21.6,8h2.1l-1-3L21.6,8z"/>
		<path class="st0" d="M30.1,3.8c0-0.4,0.1-0.5,0.5-0.5h1.9c1.9,0,2.9,0.7,2.9,2.3c0,1.1-0.5,1.8-1.5,2.1l1.6,2.7
			c0.2,0.3,0.1,0.4-0.3,0.4h-0.5c-0.4,0-0.6-0.1-0.8-0.5l-1.5-2.5h-1v2.4c0,0.4-0.1,0.5-0.5,0.5h-0.4c-0.4,0-0.5-0.1-0.5-0.5
			L30.1,3.8L30.1,3.8z M31.5,4.6v1.9h1c1,0,1.4-0.2,1.4-0.9s-0.4-1-1.4-1H31.5z"/>
		<path class="st0" d="M40.8,3.8c0-0.4,0.1-0.5,0.5-0.5h3.5c0.4,0,0.5,0.1,0.5,0.5V4c0,0.4-0.1,0.5-0.5,0.5h-2.6v1.7h2.1
			c0.4,0,0.5,0.1,0.5,0.5v0.2c0,0.4-0.1,0.5-0.5,0.5h-2.1v1.8H45c0.4,0,0.5,0.1,0.5,0.5v0.2c0,0.4-0.1,0.5-0.5,0.5h-3.6
			c-0.4,0-0.5-0.1-0.5-0.5V3.8H40.8z"/>
	</g>
	<g>
		<path class="st1" d="M10.8,10.9c1.3,0,2.5,0.5,3.4,1.4l-3.4-7.7l-3.4,7.7C8.3,11.5,9.5,10.9,10.8,10.9z"/>
		<path class="st1" d="M53.4,10.9c-2.3,0-3.7-1.5-3.7-3.8s1.4-3.8,3.7-3.8s3.7,1.5,3.7,3.8C57.1,9.4,55.6,10.9,53.4,10.9z M53.4,9.6
			c1.4,0,2.2-1,2.2-2.5s-0.8-2.5-2.2-2.5s-2.2,1-2.2,2.5C51.1,8.6,52,9.6,53.4,9.6z"/>
		<path class="st1" d="M62.9,3.8c0-0.4,0.1-0.5,0.5-0.5h0.4c0.4,0,0.5,0.1,0.5,0.5v6.4c0,0.4-0.1,0.5-0.5,0.5h-0.4
			c-0.4,0-0.5-0.1-0.5-0.5V3.8z"/>
	</g>
</g>
</svg>
